<?xml version="1.0" standalone="no"?>
<!DOCTYPE svg PUBLIC "-//W3C//DTD SVG 20010904//EN"
 "http://www.w3.org/TR/2001/REC-SVG-20010904/DTD/svg10.dtd">
<svg version="1.0" xmlns="http://www.w3.org/2000/svg"
 width="24.000000pt" height="37.000000pt" viewBox="0 0 24.000000 37.000000"
 preserveAspectRatio="xMidYMid meet">

<g transform="translate(0.000000,37.000000) scale(0.100000,-0.100000)"
fill="#000000" stroke="none">
<path d="M86 201 c-4 -5 -3 -17 0 -26 5 -11 -2 -25 -20 -41 -26 -25 -36 -77
-16 -89 5 -3 24 2 40 12 25 14 34 15 50 5 41 -25 72 -4 42 30 -13 16 -12 18
12 28 38 14 31 45 -9 45 -36 1 -55 11 -55 31 0 15 -35 20 -44 5z"/>
</g>
</svg>
